<?xml version="1.0" encoding="UTF-8" standalone="no"?>
<svg
   width="1024"
   height="600"
   viewBox="0 0 270.93333 158.75"
   version="1.1"
   id="svg8"
   inkscape:version="1.1 (c68e22c387, 2021-05-23)"
   sodipodi:docname="website_header_text.svg"
   inkscape:export-filename="D:\Shi\Google Drive\Documents\Development\TheBlacklistDMV\graphics\website_header_text.png"
   inkscape:export-xdpi="50"
   inkscape:export-ydpi="50"
   xmlns:inkscape="http://www.inkscape.org/namespaces/inkscape"
   xmlns:sodipodi="http://sodipodi.sourceforge.net/DTD/sodipodi-0.dtd"
   xmlns="http://www.w3.org/2000/svg"
   xmlns:svg="http://www.w3.org/2000/svg"
   xmlns:rdf="http://www.w3.org/1999/02/22-rdf-syntax-ns#"
   xmlns:cc="http://creativecommons.org/ns#"
   xmlns:dc="http://purl.org/dc/elements/1.1/">
  <defs
     id="defs2">
    <rect
       id="rect863"
       height="23.8125"
       width="98.651787"
       y="192.76785"
       x="17.386906" />
    <rect
       x="49.136906"
       y="114.14881"
       width="219.98215"
       height="68.035713"
       id="rect843" />
    <rect
       x="71.815475"
       y="46.869049"
       width="89.202385"
       height="60.476192"
       id="rect837" />
    <rect
       x="17.386906"
       y="192.76785"
       width="98.651787"
       height="23.8125"
       id="rect871" />
  </defs>
  <sodipodi:namedview
     id="base"
     pagecolor="#ffffff"
     bordercolor="#666666"
     borderopacity="1.0"
     inkscape:pageopacity="0.0"
     inkscape:pageshadow="2"
     inkscape:zoom="0.7"
     inkscape:cx="431.42857"
     inkscape:cy="391.42857"
     inkscape:document-units="px"
     inkscape:current-layer="g11820"
     inkscape:document-rotation="0"
     showgrid="false"
     units="px"
     inkscape:window-width="1633"
     inkscape:window-height="1040"
     inkscape:window-x="167"
     inkscape:window-y="0"
     inkscape:window-maximized="0"
     inkscape:pagecheckerboard="0"
     height="600px" />
  <metadata
     id="metadata5">
    <rdf:RDF>
      <cc:Work
         rdf:about="">
        <dc:format>image/svg+xml</dc:format>
        <dc:type
           rdf:resource="http://purl.org/dc/dcmitype/StillImage" />
      </cc:Work>
    </rdf:RDF>
  </metadata>
  <g
     inkscape:label="Layer 1"
     inkscape:groupmode="layer"
     id="layer1">
    <rect
       style="opacity:0.978542;fill:#000000;stroke-width:1.67457;stroke-linejoin:round"
       id="rect833"
       width="270.93335"
       height="158.75"
       x="0"
       y="2.8421709e-14" />
    <g
       id="g11820"
       transform="translate(0,2.7761562)">
      <g
         aria-label="The"
         transform="matrix(1.19185,0,0,1.19185,-2.9538768,-57.822673)"
         id="text835"
         style="font-size:52.9167px;line-height:1.25;font-family:Gabriola;-inkscape-font-specification:'Gabriola, Normal';text-align:center;letter-spacing:0px;word-spacing:0px;white-space:pre;shape-inside:url(#rect837)">
        <path
           d="m 87.904504,67.578483 -1.278993,-0.03876 q -0.03876,-1.563213 -0.03876,-2.77761 0,-1.253154 0.116272,-2.144573 0.116272,-0.904338 0.478007,-1.485698 0.374654,-0.581361 1.072287,-0.852662 0.710551,-0.271302 1.873271,-0.271302 0.73639,0 1.692405,0.03876 0.956014,0.03876 2.015382,0.07751 1.059367,0.03876 2.170411,0.07751 1.123963,0.03876 2.170412,0.03876 1.756999,0 3.100589,0 1.34359,-0.01292 2.39003,-0.02584 1.04645,-0.01292 1.83452,-0.03876 0.78807,-0.02584 1.43402,-0.07751 0.65888,-0.05168 1.2144,-0.116272 0.56844,-0.07751 1.1498,-0.180867 0.21962,0.620117 0.21962,1.02061 0,0.852661 -0.72347,1.30483 -0.71055,0.452169 -2.11873,0.452169 -1.33067,0 -3.13935,-0.155029 -1.79575,-0.167948 -4.056599,-0.322978 -0.03876,1.912029 -0.103353,4.082441 -0.05168,2.170411 -0.116272,4.495852 -0.06459,2.312522 -0.14211,4.741316 -0.06459,2.415874 -0.14211,4.844668 -0.07752,2.415875 -0.15503,4.792992 -0.06459,2.377117 -0.129191,4.599205 l -3.06183,0.387574 -0.232544,-0.02584 q 0.103353,-2.467552 0.193786,-4.728397 0.09043,-2.273764 0.167949,-4.457095 0.07752,-2.18333 0.14211,-4.353742 0.0646,-2.18333 0.103353,-4.482933 0.03876,-2.299603 0.0646,-4.780073 0.02584,-2.493389 0.02584,-5.296837 -0.73639,-0.02584 -1.498617,-0.03876 -0.762228,-0.02584 -1.550294,-0.02584 -0.788066,0 -1.47278,0.02584 -0.684713,0.02584 -1.253154,0.180868 -0.568441,0.155029 -1.02061,0.490926 -0.452169,0.322978 -0.762228,0.930177 -0.310059,0.594279 -0.478007,1.524455 -0.155029,0.930177 -0.155029,2.273765 z"
           style="text-anchor:middle;fill:#ffffff"
           id="path2003" />
        <path
           d="m 113.67814,82.797202 q 0.99477,-3.268537 2.10582,-5.542301 1.12396,-2.273764 2.27376,-3.681948 1.16272,-1.421103 2.31252,-2.054139 1.1498,-0.633037 2.19625,-0.633037 0.72347,0 1.39527,0.284221 0.67179,0.271301 1.18856,0.852661 0.52968,0.58136 0.83974,1.498618 0.31006,0.917257 0.31006,2.196249 0,0.387574 -0.0517,1.059368 -0.0388,0.658875 -0.10335,1.485698 -0.0646,0.813904 -0.15503,1.718243 -0.0775,0.904338 -0.14211,1.782837 -0.0646,0.8785 -0.11627,1.666566 -0.0388,0.788067 -0.0388,1.356508 0,1.007691 0.0775,1.640727 0.0904,0.633037 0.28422,1.007691 0.19379,0.361736 0.51677,0.503846 0.32298,0.129191 0.78806,0.129191 0.6718,0 1.39527,-0.180868 0.72347,-0.193786 1.45986,-0.529683 l 0.24546,0.671794 q -0.46509,0.374654 -1.17564,0.762228 -0.71055,0.387573 -1.49861,0.710551 -0.77515,0.322978 -1.5503,0.516765 -0.77515,0.206705 -1.36943,0.206705 -0.69763,0 -1.09812,-0.374654 -0.40049,-0.374654 -0.6072,-1.02061 -0.19379,-0.645956 -0.25838,-1.511537 -0.0517,-0.86558 -0.0517,-1.860352 0,-1.201478 0.0775,-2.480471 0.0904,-1.278992 0.18087,-2.454632 0.10335,-1.175639 0.18086,-2.144573 0.0904,-0.981853 0.0904,-1.576132 0,-1.434022 -0.55553,-2.144573 -0.55552,-0.723471 -1.49861,-0.723471 -0.73639,0 -1.57613,0.633037 -0.82683,0.633037 -1.65365,1.744081 -0.81391,1.098124 -1.57613,2.609661 -0.76223,1.498617 -1.36943,3.255617 -0.6072,1.744081 -1.00769,3.65611 -0.40049,1.912029 -0.50385,3.824058 l -2.75177,0.335897 -0.2067,-0.01292 q 0.0775,-1.524456 0.16794,-3.35897 0.10336,-1.847434 0.20671,-3.914492 0.11627,-2.067059 0.23254,-4.302066 0.1292,-2.247926 0.24547,-4.573367 0.12919,-2.32544 0.25838,-4.689639 0.12919,-2.364198 0.24546,-4.6638 0.12919,-2.312522 0.24547,-4.521691 0.11627,-2.209169 0.21962,-4.224551 0.0129,-0.310059 0.18087,-0.529684 0.16795,-0.232544 0.42633,-0.361735 0.2713,-0.14211 0.6072,-0.206706 0.33589,-0.0646 0.69763,-0.0646 0.77515,0 1.62781,0.413411 -0.29714,2.6355 -0.52968,4.844669 -0.23255,2.196249 -0.42634,4.08244 -0.18086,1.873272 -0.33589,3.501081 -0.14211,1.627808 -0.2713,3.126426 -0.11628,1.485698 -0.21963,2.906801 -0.10335,1.421103 -0.20671,2.893882 -0.10335,1.45986 -0.21962,3.048911 -0.10335,1.576132 -0.23254,3.397728 z"
           style="text-anchor:middle;fill:#ffffff"
           id="path2005" />
        <path
           d="m 144.78737,85.652326 q 0.0775,0.03876 0.19379,0.116272 0.12919,0.0646 0.23254,0.15503 0.10335,0.07751 0.18087,0.180867 0.0775,0.09043 0.0775,0.180868 0,0.05168 -0.0387,0.103353 -0.72347,1.007691 -1.56322,1.757 -0.82682,0.736389 -1.73116,1.240235 -0.89142,0.490926 -1.82159,0.72347 -0.93018,0.245464 -1.83452,0.245464 -1.55029,0 -2.8422,-0.633037 -1.29192,-0.633037 -2.22209,-1.731162 -0.93018,-1.098125 -1.45986,-2.570904 -0.51677,-1.485698 -0.51677,-3.178102 0,-1.382346 0.29714,-2.764691 0.31006,-1.382345 0.8785,-2.6355 0.58136,-1.253154 1.40819,-2.32544 0.82682,-1.085206 1.87327,-1.873272 1.05937,-0.800985 2.31252,-1.253155 1.26607,-0.452169 2.71301,-0.452169 0.95602,0 1.8216,0.258383 0.86558,0.258382 1.51154,0.749308 0.65887,0.478008 1.04644,1.188559 0.38758,0.710551 0.38758,1.61489 0,1.317749 -0.86558,2.299602 -0.85266,0.981853 -2.3642,1.666566 -1.51154,0.684713 -3.56568,1.111044 -2.04122,0.413412 -4.41833,0.620118 v 0.219625 q 0,1.653646 0.41341,3.023073 0.42633,1.369426 1.16272,2.351279 0.73639,0.968934 1.73116,1.511536 0.99477,0.542603 2.14457,0.542603 1.16272,0 2.37712,-0.568441 1.22732,-0.58136 2.48047,-1.873272 z m -2.42879,-10.37405 q 0,-0.594279 -0.20671,-1.111044 -0.19379,-0.516764 -0.55552,-0.891419 -0.34882,-0.387573 -0.83974,-0.607198 -0.49093,-0.219625 -1.05937,-0.219625 -0.83974,0 -1.52446,0.29714 -0.68471,0.297139 -1.22731,0.813904 -0.54261,0.503845 -0.95602,1.188559 -0.41341,0.671794 -0.71055,1.434021 -0.28422,0.762228 -0.46509,1.563213 -0.18087,0.800986 -0.25838,1.563213 1.83451,-0.129191 3.28146,-0.439249 1.45986,-0.322978 2.45463,-0.813905 1.00769,-0.503845 1.53737,-1.188558 0.52969,-0.697633 0.52969,-1.589052 z"
           style="text-anchor:middle;fill:#ffffff"
           id="path2007" />
      </g>
      <g
         aria-label="BLACKLIST"
         transform="matrix(1.2511679,0,0,1.2511679,-64.647419,-99.096486)"
         id="text841"
         style="font-size:46.3021px;line-height:1.25;font-family:Impact;-inkscape-font-specification:'Impact, Normal';text-align:center;letter-spacing:0px;word-spacing:0px;white-space:pre;shape-inside:url(#rect843);fill:#ffffff">
        <path
           d="m 63.742888,123.89757 h 9.495548 q 4.499082,0 6.805143,0.70086 2.32867,0.70087 3.753003,2.84867 1.424332,2.12519 1.424332,6.87297 0,3.2104 -1.01738,4.47647 -0.994772,1.26607 -3.956479,1.94433 3.300834,0.74607 4.476473,2.48692 1.175639,1.71825 1.175639,5.29038 v 3.39127 q 0,3.70778 -0.859121,5.49385 -0.836512,1.78607 -2.690405,2.44171 -1.853893,0.65565 -7.596439,0.65565 H 63.742888 Z m 9.518157,6.26254 v 8.13904 q 0.610428,-0.0226 0.949555,-0.0226 1.401723,0 1.786067,-0.67825 0.384344,-0.70086 0.384344,-3.95648 0,-1.71824 -0.316519,-2.39649 -0.316518,-0.70086 -0.836512,-0.88173 -0.497386,-0.18087 -1.966935,-0.20348 z m 0,13.83637 v 10.24163 q 2.012152,-0.0678 2.554754,-0.63304 0.565212,-0.56521 0.565212,-2.78084 v -3.41387 q 0,-2.35128 -0.497386,-2.84867 -0.497386,-0.49738 -2.62258,-0.56521 z"
           style="text-anchor:middle"
           id="path2127" />
        <path
           d="m 98.831199,123.89757 v 29.27794 h 5.787761 v 7.32514 H 89.313043 v -36.60308 z"
           style="text-anchor:middle"
           id="path2129" />
        <path
           d="m 124.5144,123.89757 5.44863,36.60308 h -9.74424 l -0.47478,-6.57906 h -3.41387 l -0.56521,6.57906 h -9.85729 l 4.83821,-36.60308 z m -5.04169,23.5354 q -0.72347,-6.21733 -1.44694,-15.35114 -1.44694,10.49032 -1.80867,15.35114 z"
           style="text-anchor:middle"
           id="path2131" />
        <path
           d="m 153.81494,139.85914 h -9.51816 v -6.37559 q 0,-2.78084 -0.31652,-3.45909 -0.29391,-0.70086 -1.33389,-0.70086 -1.17564,0 -1.49216,0.83651 -0.31652,0.83651 -0.31652,3.61735 v 17.00156 q 0,2.66779 0.31652,3.4817 0.31652,0.8139 1.42433,0.8139 1.0626,0 1.37912,-0.8139 0.33912,-0.81391 0.33912,-3.82083 v -4.58952 h 9.51816 v 1.42434 q 0,5.67472 -0.81391,8.0486 -0.79129,2.37389 -3.54952,4.15996 -2.73562,1.78607 -6.75993,1.78607 -4.18256,0 -6.89557,-1.51477 -2.71302,-1.51477 -3.59475,-4.18256 -0.88173,-2.69041 -0.88173,-8.07122 V 136.807 q 0,-3.95648 0.2713,-5.92342 0.27131,-1.98954 1.6052,-3.82083 1.35651,-1.83128 3.7304,-2.87127 2.39649,-1.0626 5.49385,-1.0626 4.20517,0 6.94079,1.62781 2.73563,1.62781 3.59475,4.06952 0.85912,2.41911 0.85912,7.55123 z"
           style="text-anchor:middle"
           id="path2133" />
        <path
           d="m 179.90509,123.89757 -5.44863,16.52678 5.96863,20.0763 h -9.83468 l -3.84343,-15.69026 v 15.69026 h -9.51816 v -36.60308 h 9.51816 v 14.22072 l 4.22778,-14.22072 z"
           style="text-anchor:middle"
           id="path2135" />
        <path
           d="m 191.59366,123.89757 v 29.27794 h 5.78776 v 7.32514 H 182.0755 v -36.60308 z"
           style="text-anchor:middle"
           id="path2137" />
        <path
           d="m 209.20564,123.89757 v 36.60308 h -9.51816 v -36.60308 z"
           style="text-anchor:middle"
           id="path2139" />
        <path
           d="m 233.19321,134.97571 h -8.8399 v -2.71301 q 0,-1.89911 -0.33913,-2.41911 -0.33913,-0.51999 -1.13042,-0.51999 -0.85912,0 -1.31129,0.70086 -0.42956,0.70086 -0.42956,2.1252 0,1.83128 0.49738,2.75823 0.47478,0.92694 2.69041,2.23823 6.35297,3.77561 8.00339,6.19472 1.65041,2.4191 1.65041,7.79991 0,3.91126 -0.92694,5.76516 -0.90434,1.85389 -3.52692,3.11996 -2.62258,1.24347 -6.10428,1.24347 -3.82083,0 -6.53384,-1.44694 -2.69041,-1.44694 -3.52692,-3.68518 -0.83651,-2.23824 -0.83651,-6.35298 v -2.39649 h 8.8399 v 4.45386 q 0,2.05737 0.36174,2.64519 0.38434,0.58782 1.33389,0.58782 0.94956,0 1.40173,-0.74608 0.47477,-0.74608 0.47477,-2.21563 0,-3.233 -0.88172,-4.22777 -0.90434,-0.99478 -4.45387,-3.32345 -3.54953,-2.35128 -4.70256,-3.41387 -1.15303,-1.0626 -1.92171,-2.9391 -0.74608,-1.8765 -0.74608,-4.79299 0,-4.20517 1.06259,-6.1495 1.08521,-1.94433 3.48171,-3.02953 2.39649,-1.10782 5.78776,-1.10782 3.70778,0 6.30775,1.19825 2.62258,1.19825 3.4591,3.02953 0.85912,1.80868 0.85912,6.17211 z"
           style="text-anchor:middle"
           id="path2141" />
        <path
           d="m 256.14077,123.89757 v 7.32514 h -5.65211 v 29.27794 h -9.51815 V 131.22271 H 235.341 v -7.32514 z"
           style="text-anchor:middle"
           id="path2143" />
      </g>
      <g
         aria-label="DMV"
         transform="scale(0.88260833,1.1330054)"
         id="text849"
         style="font-size:43.7355px;line-height:1.25;letter-spacing:0.639941px;word-spacing:0px;stroke-width:0.303718">
        <path
           d="m 114.40512,94.271152 h 6.72689 q 6.51335,0 8.79836,0.597946 2.30636,0.597946 3.50225,1.964681 1.19589,1.366734 1.49487,3.053797 0.29897,1.665704 0.29897,6.577414 v 12.10841 q 0,4.65544 -0.44846,6.23572 -0.4271,1.55893 -1.51622,2.45585 -1.08912,0.87557 -2.69076,1.23861 -1.60164,0.34168 -4.82628,0.34168 h -11.33962 z m 8.99055,5.915398 v 22.74331 q 1.94332,0 2.39178,-0.76878 0.44846,-0.79015 0.44846,-4.24969 v -13.43244 q 0,-2.34908 -0.14949,-3.01109 -0.14948,-0.66201 -0.68336,-0.96098 -0.53388,-0.32033 -2.00739,-0.32033 z"
           style="font-stretch:condensed;font-family:Impact;-inkscape-font-specification:'Impact Condensed';text-align:center;text-anchor:middle;fill:#ffffff"
           id="path3796" />
        <path
           d="m 166.95961,94.271152 v 34.574108 h -7.85872 V 105.504 l -3.13922,23.34126 h -5.57372 l -3.31006,-22.80738 v 22.80738 h -7.85872 V 94.271152 h 11.6386 q 0.51252,3.117863 1.08912,7.346198 l 1.2386,8.79835 2.0501,-16.144548 z"
           style="font-stretch:condensed;font-family:Impact;-inkscape-font-specification:'Impact Condensed';text-align:center;text-anchor:middle;fill:#ffffff"
           id="path3798" />
        <path
           d="m 192.56381,94.271152 -4.57002,34.574108 H 174.3478 l -5.18932,-34.574108 h 9.48172 q 1.64435,14.286648 2.34908,24.152758 0.70472,-9.97289 1.47351,-17.72484 l 0.6193,-6.427918 z"
           style="font-stretch:condensed;font-family:Impact;-inkscape-font-specification:'Impact Condensed';text-align:center;text-anchor:middle;fill:#ffffff"
           id="path3800" />
      </g>
      <rect
         y="119.97047"
         x="17.386906"
         height="5.2916665"
         width="75.217262"
         id="rect853"
         style="font-variation-settings:'wdth' 100, 'wght' 400;opacity:0.978542;fill:#ffffff;stroke-width:2.64583;stroke-linejoin:round" />
      <rect
         style="font-variation-settings:'wdth' 100, 'wght' 400;opacity:0.978542;fill:#ffffff;stroke-width:2.64583;stroke-linejoin:round"
         id="rect855"
         width="75.217262"
         height="5.2916665"
         x="177.19466"
         y="119.97047" />
      <rect
         y="27.596113"
         x="177.19466"
         height="1.8898808"
         width="75.217262"
         id="rect857"
         style="font-variation-settings:'wdth' 100, 'wght' 400;opacity:0.978542;fill:#ffffff;stroke-width:1.58119;stroke-linejoin:round" />
      <rect
         style="font-variation-settings:'wdth' 100, 'wght' 400;opacity:0.978542;fill:#ffffff;stroke-width:1.58118;stroke-linejoin:round"
         id="rect859"
         width="75.217262"
         height="1.8898808"
         x="17.386906"
         y="27.596113" />
    </g>
  </g>
</svg>
